<svg width="16" height="16" viewBox="0 0 16 16" fill="none" xmlns="http://www.w3.org/2000/svg">
<g clip-path="url(#clip0_209_663)">
<path d="M9.15174 2.29628L10.3249 4.66208C10.4849 4.99141 10.9115 5.3073 11.2715 5.36779L13.3979 5.724C14.7578 5.95251 15.0777 6.94722 14.0979 7.92849L12.4447 9.5953C12.1647 9.87759 12.0114 10.422 12.0981 10.8118L12.5714 12.8752C12.9447 14.5084 12.0847 15.1401 10.6516 14.2866L8.65846 13.097C8.2985 12.8819 7.70523 12.8819 7.3386 13.097L5.34549 14.2866C3.91898 15.1401 3.05241 14.5016 3.4257 12.8752L3.89898 10.8118C3.98564 10.422 3.83232 9.87759 3.55236 9.5953L1.89921 7.92849C0.92598 6.94722 1.23928 5.95251 2.59913 5.724L4.72556 5.36779C5.07885 5.3073 5.50547 4.99141 5.66546 4.66208L6.83866 2.29628C7.47859 1.01257 8.51847 1.01257 9.15174 2.29628Z" fill="#C5C5C5" stroke="#C5C5C5" stroke-width="1.25" stroke-linecap="round" stroke-linejoin="round"/>
</g>
<defs>
<clipPath id="clip0_209_663">
<rect width="16" height="16" fill="white"/>
</clipPath>
</defs>
</svg>
